<svg xmlns="http://www.w3.org/2000/svg" viewBox="0 0 512 512"><path d="M492.138 286.897H19.862a2.207 2.207 0 0 1-2.207-2.207V22.069c0-9.751 7.904-17.655 17.655-17.655h441.38c9.751 0 17.655 7.904 17.655 17.655V284.69a2.207 2.207 0 0 1-2.207 2.207z" fill="#895438"/><g fill="#ffb432"><path d="M414.897 207.448h44.138a8.829 8.829 0 0 1 0 17.656h-44.138a8.829 8.829 0 0 1 0-17.656z"/><path d="M397.241 198.621h44.138a8.829 8.829 0 0 1 0 17.656h-44.138a8.829 8.829 0 0 1 0-17.656z"/><path d="M371.862 189.793h59.586c.609 0 1.103.494 1.103 1.103v15.448c0 .609-.494 1.103-1.103 1.103h-59.586a1.103 1.103 0 0 1-1.103-1.103v-15.448c0-.609.494-1.103 1.103-1.103zM361.931 207.448h-44.138a8.829 8.829 0 0 0 0 17.656h44.138a8.829 8.829 0 0 0 0-17.656z"/><path d="M379.586 198.621h-44.138a8.829 8.829 0 0 0 0 17.656h44.138a8.828 8.828 0 0 0 0-17.656z"/><path d="M397.241 189.793h-44.138a8.829 8.829 0 0 0 0 17.656h44.138a8.829 8.829 0 0 0 0-17.656zM273.655 207.448h-44.138a8.829 8.829 0 0 0 0 17.656h44.138a8.829 8.829 0 0 0 0-17.656z"/><path d="M299.034 198.621h-59.586c-.609 0-1.103.494-1.103 1.103v15.448c0 .609.494 1.103 1.103 1.103h59.586c.609 0 1.103-.494 1.103-1.103v-15.448a1.102 1.102 0 0 0-1.103-1.103z"/><path d="M308.966 189.793h-44.138a8.829 8.829 0 0 0 0 17.656h44.138a8.829 8.829 0 0 0 8.828-8.828 8.83 8.83 0 0 0-8.828-8.828z"/><path d="M308.966 172.138h-44.138a8.829 8.829 0 0 0 0 17.656h44.138a8.829 8.829 0 0 0 0-17.656zM397.241 172.138h-44.138a8.829 8.829 0 0 0 0 17.656h44.138a8.828 8.828 0 0 0 0-17.656zM220.69 172.138h-44.138a8.829 8.829 0 0 0 0 17.656h44.138a8.829 8.829 0 0 0 0-17.656z"/></g><g fill="#ffc83c"><path d="M335.448 198.621H291.31a8.829 8.829 0 0 0 0 17.656h44.138a8.828 8.828 0 0 0 0-17.656z"/><path d="M353.103 180.966h-44.138a8.829 8.829 0 0 0 0 17.656h44.138a8.828 8.828 0 0 0 0-17.656z"/></g><path d="M353.103 180.966h-8.828a8.829 8.829 0 0 0 0 17.656h8.828a8.828 8.828 0 0 0 0-17.656z" fill="#fff"/><g fill="#ffc83c"><path d="M317.793 216.276h-44.138a8.829 8.829 0 0 0 0 17.656h44.138a8.828 8.828 0 0 0 0-17.656zM423.724 198.621h-44.138a8.829 8.829 0 0 0 0 17.656h44.138a8.828 8.828 0 0 0 0-17.656z"/><path d="M441.379 180.966h-44.138a8.829 8.829 0 0 0 0 17.656h44.138a8.828 8.828 0 0 0 0-17.656zM406.069 216.276h-44.138a8.829 8.829 0 0 0 0 17.656h44.138a8.828 8.828 0 0 0 0-17.656z"/></g><path d="M273.655 136.828h-35.31a8.829 8.829 0 0 1-8.828-8.828v-25.379c0-.609.494-1.103 1.103-1.103h50.759c.609 0 1.103.494 1.103 1.103V128a8.827 8.827 0 0 1-8.827 8.828z" fill="#ffb432"/><path d="M494.345 507.586H17.655C7.904 507.586 0 499.682 0 489.931V242.759c0-9.751 7.904-17.655 17.655-17.655h476.69c9.751 0 17.655 7.904 17.655 17.655v247.172c0 9.751-7.904 17.655-17.655 17.655z" fill="#ffc83c"/><path fill="#895438" d="M35.31 260.414h441.379v211.862H35.31z"/><path d="M494.345 489.931H17.655V242.759h476.69v247.172zM35.31 472.276h441.38V260.414H35.31v211.862z" fill="#ffb432"/><g fill="#6c392c"><path d="M35.31 313.379h441.379v17.655H35.31zM35.31 401.655h441.379v17.655H35.31z"/></g><path d="M476.69 4.414v97.103H35.31V4.414c-9.75 0-17.655 7.904-17.655 17.655v97.103H494.345V22.069c0-9.751-7.905-17.655-17.655-17.655z" fill="#ffc83c"/><g fill="#ffb432"><path d="M35.31 4.414h17.655v97.103H35.31zM459.034 4.414h17.655v97.103h-17.655z"/><path d="M35.31 83.862h441.379v17.655H35.31zM256 331.034c-19.501 0-35.31-15.809-35.31-35.31v-52.966h70.621v52.966c-.001 19.501-15.81 35.31-35.311 35.31z"/></g><g fill="#6c392c"><circle cx="256" cy="278.069" r="8.828"/><path d="M256 304.552a4.414 4.414 0 0 1-4.414-4.414v-21.517c0-.305.247-.552.552-.552h7.724c.305 0 .552.247.552.552v21.517a4.414 4.414 0 0 1-4.414 4.414zM52.966 30.897h406.069v17.655H52.966z"/></g><g fill="#ffb432"><path d="M97.103 207.448H52.966a8.829 8.829 0 0 0 0 17.656h44.138a8.829 8.829 0 0 0 8.828-8.828 8.83 8.83 0 0 0-8.829-8.828z"/><path d="M114.759 198.621H70.621a8.829 8.829 0 0 0 0 17.656h44.138a8.829 8.829 0 0 0 0-17.656z"/><path d="M132.414 189.793H88.276a8.829 8.829 0 0 0 0 17.656h44.138a8.829 8.829 0 0 0 8.828-8.828 8.83 8.83 0 0 0-8.828-8.828zM185.379 207.448h-44.138a8.829 8.829 0 0 0 0 17.656h44.138a8.829 8.829 0 0 0 0-17.656z"/><path d="M203.034 198.621h-44.138a8.829 8.829 0 0 0 0 17.656h44.138a8.829 8.829 0 0 0 8.828-8.828 8.827 8.827 0 0 0-8.828-8.828z"/><path d="M220.69 189.793h-44.138a8.829 8.829 0 0 0 0 17.656h44.138a8.829 8.829 0 0 0 8.828-8.828 8.83 8.83 0 0 0-8.828-8.828z"/></g><g fill="#ffc83c"><path d="M158.897 198.621h-44.138a8.829 8.829 0 0 0 0 17.656h44.138a8.829 8.829 0 0 0 0-17.656z"/><path d="M176.552 180.966h-44.138a8.829 8.829 0 0 0 0 17.656h44.138a8.829 8.829 0 0 0 0-17.656zM141.241 216.276H97.103a8.829 8.829 0 0 0 0 17.656h44.138a8.828 8.828 0 0 0 0-17.656zM247.172 198.621h-44.138a8.829 8.829 0 0 0 0 17.656h44.138a8.828 8.828 0 0 0 0-17.656z"/><path d="M264.828 180.966H220.69a8.829 8.829 0 0 0 0 17.656h44.138a8.829 8.829 0 0 0 0-17.656zM229.517 216.276h-44.138a8.829 8.829 0 0 0 0 17.656h44.138a8.828 8.828 0 0 0 0-17.656z"/></g><g fill="#fff"><path d="M247.172 198.621h-8.828a8.829 8.829 0 0 0 0 17.656h8.828a8.828 8.828 0 0 0 0-17.656zM176.552 180.966h-8.828a8.829 8.829 0 0 0 0 17.656h8.828a8.829 8.829 0 0 0 0-17.656zM423.724 198.621h-8.828a8.829 8.829 0 0 0 0 17.656h8.828a8.828 8.828 0 0 0 0-17.656z"/></g></svg>