<svg data-name="Layer 1" xmlns="http://www.w3.org/2000/svg" viewBox="0 0 45 28"><defs><linearGradient id="a" x1="35.58" y1="1053.71" x2="35.58" y2="1064.39" gradientTransform="matrix(1 0 0 -1 0 1082)" gradientUnits="userSpaceOnUse"><stop offset="0" stop-color="#fc0"/><stop offset="1" stop-color="#dbaf02"/></linearGradient></defs><g data-name="Layer0 0 MEMBER 60 FILL"><path d="M42.35 25.7V18H28.8v7.7a2 2 0 002.25 2.3h1.7a.88.88 0 00.75-.75V26h4.15v1.2a.88.88 0 00.75.75h1.7a2 2 0 002.25-2.25z" fill="url(#a)"/><path d="M44.75 13.9a4.37 4.37 0 00-.5-.85 2.89 2.89 0 00-2.35-1.2H21.25A14.59 14.59 0 0019 6.65a.58.58 0 00-.1-.15 15.43 15.43 0 00-2.2-2.4A8.72 8.72 0 0010.85 2 8.67 8.67 0 004.9 4.1a13.74 13.74 0 00-2.15 2.4s-.07 0-.1.1A14 14 0 00.1 14.15a.56.56 0 000 .25 2.65 2.65 0 00-.05.45V15a14.78 14.78 0 002.75 8.5q3.2 4.6 8 4.5 4.7.1 8.05-4.5A15 15 0 0021.3 18h21a3.13 3.13 0 001.9-1.1 4 4 0 00.8-2v-.05a1.05 1.05 0 00-.1-.45 2.85 2.85 0 00-.15-.5M10.8 8.1a2.8 2.8 0 011.95 1.3 8.74 8.74 0 011.35 4.7v1.65a8.38 8.38 0 01-1.35 4.8l-.1.2a2.88 2.88 0 01-1.85 1.15 2.88 2.88 0 01-1.85-1.15.45.45 0 000-.2 8 8 0 01-1.45-4.8 5.31 5.31 0 010-.75 3.64 3.64 0 01-.05-.6V14A7.79 7.79 0 018.9 9.4h-.05a2.94 2.94 0 011.95-1.3z" fill="#fc0"/><path d="M14.1 14.4v-.15a7.92 7.92 0 01-1.35 4.3l-.1.2a2.88 2.88 0 01-1.85 1.15 2.88 2.88 0 01-1.85-1.15.45.45 0 000-.2A7.71 7.71 0 017.45 14v.4a3.64 3.64 0 00.05.6 5.31 5.31 0 00-.05.75 8 8 0 001.45 4.8.45.45 0 010 .2 2.88 2.88 0 001.9 1.15 2.88 2.88 0 001.85-1.15l.1-.2a8.38 8.38 0 001.35-4.8V14.4M44.25 11a2.89 2.89 0 00-2.35-1.2H21.25A14.59 14.59 0 0019 4.65a.58.58 0 00-.1-.15 15.43 15.43 0 00-2.2-2.4A8.72 8.72 0 0010.85 0 8.67 8.67 0 004.9 2.1a13.74 13.74 0 00-2.15 2.4s-.07 0-.1.1a14.54 14.54 0 00-2.6 7.8A2.81 2.81 0 000 13v1.9a2.65 2.65 0 01.05-.45.56.56 0 010-.25 14 14 0 012.6-7.6c0-.07.07-.1.1-.1A13.74 13.74 0 014.9 4.1 8.67 8.67 0 0110.8 2a8.72 8.72 0 015.9 2.1 15.43 15.43 0 012.2 2.4.58.58 0 01.1.15 14.59 14.59 0 012.25 5.2H41.9A2.89 2.89 0 0144.25 13a4.37 4.37 0 01.5.85 2.85 2.85 0 01.15.5 1.05 1.05 0 01.1.45v-1.9a1.11 1.11 0 00-.1-.5 4.58 4.58 0 00-.65-1.4z" fill="#ffe47b"/></g></svg>